<svg width="25" height="32" viewBox="0 0 25 32" fill="none" xmlns="http://www.w3.org/2000/svg">
<path fill-rule="evenodd" clip-rule="evenodd" d="M16.7228 8.18911C20.8702 9.36447 23.0741 14.8888 21.6453 20.5282C20.2164 26.1675 15.6959 29.7864 11.5485 28.6112C7.40109 27.4358 5.19726 21.9116 6.62605 16.2721C8.05485 10.6328 12.5754 7.0139 16.7228 8.18911ZM24.5381 21.348C23.8273 24.1537 22.4272 26.7867 20.4099 28.7734C18.4943 30.66 16.0457 31.9182 13.4015 31.9962C12.5146 32.0224 11.6305 31.9135 10.7732 31.6706C7.26887 30.6772 4.09443 26.9507 2.41574 23.7056C-1.6458 15.8541 -0.0321653 6.05102 3.1875 0.153748C3.1875 0.153748 2.59672 3.20665 4.1275 5.65847C5.87225 8.45307 8.9061 5.70098 12.5958 4.58518C21.409 1.91994 26.6348 13.0724 24.5381 21.348Z" fill="#004790"/>
<path fill-rule="evenodd" clip-rule="evenodd" d="M7.18211 0C8.61209 0 9.77137 1.22598 9.77137 2.73839C9.77137 4.2507 8.61211 5.47681 7.18211 5.47681C5.75203 5.47681 4.59277 4.2507 4.59277 2.73839C4.59277 1.22598 5.75203 0 7.18211 0Z" fill="#004790"/>
</svg>
