<svg width="170" height="35" viewBox="0 0 170 35" fill="none" xmlns="http://www.w3.org/2000/svg">
<path fill-rule="evenodd" clip-rule="evenodd" d="M16.7228 8.18911C20.8702 9.36447 23.0741 14.8888 21.6453 20.5282C20.2164 26.1675 15.6959 29.7864 11.5485 28.6112C7.40109 27.4358 5.19726 21.9116 6.62605 16.2721C8.05485 10.6328 12.5754 7.0139 16.7228 8.18911ZM24.5381 21.348C23.8273 24.1537 22.4272 26.7867 20.4099 28.7734C18.4943 30.66 16.0457 31.9182 13.4015 31.9962C12.5146 32.0224 11.6305 31.9135 10.7732 31.6706C7.26887 30.6772 4.09443 26.9507 2.41574 23.7056C-1.6458 15.8541 -0.0321653 6.05102 3.1875 0.153748C3.1875 0.153748 2.59672 3.20665 4.1275 5.65847C5.87225 8.45307 8.9061 5.70098 12.5958 4.58518C21.409 1.91994 26.6348 13.0724 24.5381 21.348Z" fill="#004790"/>
<path fill-rule="evenodd" clip-rule="evenodd" d="M7.18211 0C8.61209 0 9.77137 1.22598 9.77137 2.73839C9.77137 4.2507 8.61211 5.47681 7.18211 5.47681C5.75203 5.47681 4.59277 4.2507 4.59277 2.73839C4.59277 1.22598 5.75203 0 7.18211 0Z" fill="#004790"/>
<path d="M48.248 27.24C42.752 27.24 39.104 23.112 39.104 18.24C39.104 13.2 42.872 9.24 48.152 9.24C51.464 9.24 53.984 10.656 55.64 12.888L52.784 14.88C51.776 13.344 50.192 12.456 48.152 12.456C44.912 12.456 42.488 15.024 42.488 18.24C42.488 21.504 44.864 23.976 48.2 23.976C50.864 23.976 52.616 22.488 53.192 20.184H47.624V17.016H56.84V18.48C56.84 23.16 53.504 27.24 48.248 27.24ZM64.4504 27.264C60.2744 27.264 57.5864 24.312 57.5864 20.544C57.5864 16.776 60.5144 13.776 64.3784 13.776C68.2664 13.776 71.0744 16.584 71.0744 20.424V21.672H60.7784C61.2104 23.352 62.5784 24.408 64.4984 24.408C66.0344 24.408 67.0664 23.736 67.7144 22.68L70.4264 24.264C69.1304 26.088 67.3064 27.264 64.4504 27.264ZM64.3784 16.584C62.6984 16.584 61.4024 17.568 60.8744 19.08H67.7864C67.3544 17.472 66.1064 16.584 64.3784 16.584ZM70.8166 16.968V14.04H73.2166V11.232L76.4806 9.312V14.04H79.8886V16.968H76.4806V22.296C76.4806 23.664 77.0566 24.144 77.8966 24.144C78.3526 24.144 78.7126 24 79.0966 23.664L80.6086 26.256C79.7686 26.88 78.7126 27.24 77.5126 27.24C74.8006 27.24 73.2166 25.944 73.2166 22.416V16.968H70.8166ZM80.8835 27V14.04H84.1475V16.032C84.7715 14.496 86.0675 13.8 87.7235 13.8C88.5875 13.8 89.3555 14.016 89.9075 14.304L88.7075 17.568C88.3475 17.304 87.7235 17.112 86.9795 17.112C85.2755 17.112 84.1715 17.976 84.1715 20.16V27H80.8835ZM95.7958 27.264C91.6198 27.264 88.9318 24.312 88.9318 20.544C88.9318 16.776 91.8598 13.776 95.7238 13.776C99.6118 13.776 102.42 16.584 102.42 20.424V21.672H92.1238C92.5558 23.352 93.9238 24.408 95.8438 24.408C97.3798 24.408 98.4118 23.736 99.0598 22.68L101.772 24.264C100.476 26.088 98.6518 27.264 95.7958 27.264ZM95.7238 16.584C94.0438 16.584 92.7478 17.568 92.2198 19.08H99.1318C98.6998 17.472 97.4518 16.584 95.7238 16.584ZM114.102 27L109.83 18.336L107.046 21.744V27H103.638V9.48H107.046V17.616L113.622 9.48H117.654L112.302 16.008L117.846 27H114.102ZM118.088 27V14.04H121.352V16.032C121.976 14.496 123.272 13.8 124.928 13.8C125.792 13.8 126.56 14.016 127.112 14.304L125.912 17.568C125.552 17.304 124.928 17.112 124.184 17.112C122.48 17.112 121.376 17.976 121.376 20.16V27H118.088ZM132.639 27.264C129.447 27.264 127.599 25.224 127.599 21.816V14.04H130.983V21.36C130.983 23.184 131.847 24.312 133.623 24.312C135.183 24.312 136.335 23.184 136.335 21.168V14.04L139.695 14.016V26.976L136.383 27V25.368C135.543 26.544 134.223 27.264 132.639 27.264ZM141.118 27V14.04H144.502V27H141.118ZM140.686 10.392C140.686 9.144 141.574 8.232 142.798 8.232C144.07 8.232 144.934 9.144 144.934 10.392C144.934 11.616 144.07 12.504 142.798 12.504C141.55 12.504 140.686 11.616 140.686 10.392ZM145.151 16.968V14.04H147.551V11.232L150.815 9.312V14.04H154.223V16.968H150.815V22.296C150.815 23.664 151.391 24.144 152.231 24.144C152.687 24.144 153.047 24 153.431 23.664L154.943 26.256C154.103 26.88 153.047 27.24 151.847 27.24C149.135 27.24 147.551 25.944 147.551 22.416V16.968H145.151ZM160.417 27.264C157.225 27.264 154.177 24.648 154.177 20.52C154.177 16.392 157.153 13.776 160.465 13.776C162.169 13.776 163.585 14.496 164.473 15.696V8.064H167.737V27H164.473V25.224C163.561 26.496 162.097 27.264 160.417 27.264ZM161.065 24.144C163.105 24.144 164.665 22.512 164.665 20.496C164.665 18.48 163.105 16.848 161.065 16.848C159.073 16.848 157.465 18.456 157.465 20.496C157.465 22.536 159.073 24.144 161.065 24.144Z" fill="#000316"/>
</svg>
